<?xml version="1.0" encoding="utf-8"?>
<!-- Generator: Adobe Illustrator 16.0.0, SVG Export Plug-In . SVG Version: 6.00 Build 0)  -->
<!DOCTYPE svg PUBLIC "-//W3C//DTD SVG 1.1//EN" "http://www.w3.org/Graphics/SVG/1.1/DTD/svg11.dtd">
<svg version="1.1" id="Layer_1" xmlns="http://www.w3.org/2000/svg" xmlns:xlink="http://www.w3.org/1999/xlink" x="0px" y="0px"
	 width="237.637px" height="46.832px" viewBox="0 0 237.637 46.832" enable-background="new 0 0 237.637 46.832"
	 xml:space="preserve">
<polygon fill="#278A43" points="167.103,9.417 167.103,14.38 177.028,14.38 177.028,23.064 167.103,23.064 167.103,29.27 
	177.028,29.27 177.028,36.713 157.177,36.713 157.177,0.731 177.028,0.731 177.028,9.417 "/>
<path fill="#278A43" d="M213.578,38.758l-2.815-3.332c-2.722,1.643-5.912,2.301-9.713,2.301c-11.355,0-19.566-8.071-19.566-19.521
	C181.483,7.508,190.867,0,201.05,0c11.026,0,19.566,7.461,19.566,18.956c0,4.692-1.597,8.772-4.553,12.435l5.96,6.053
	L213.578,38.758z M212.239,16.368L201.59,6.156c-0.298-0.286-0.77-0.286-1.065,0l-10.682,10.243c-0.228,0.219-0.3,0.74-0.182,1.031
	c0.115,0.292,0.398,0.672,0.714,0.672h1.542V28.16c0,0.424,0.17,1.107,0.594,1.107h17.092c0.425,0,0.925-0.685,0.925-1.107V18.102
	h1.213h0.002c0.425,0,0.77-0.534,0.77-0.958C212.511,16.908,212.405,16.509,212.239,16.368"/>
<path fill="#595A5C" d="M4.003,27.504c0,0,3.526,4.059,8.312,4.059c2.608,0,4.929-1.4,4.929-4.059
	c0-5.846-16.141-5.364-16.141-16.042c0-5.557,5.046-9.665,11.665-9.665c4.011,0,10.409,1.885,10.409,6.765v3.336h-6.204v-1.692
	c0-1.596-2.234-2.659-4.504-2.659c-2.899,0-5.006,1.499-5.006,3.674c0,5.847,16.148,4.687,16.148,15.945
	c0,5.46-4.199,10.1-11.398,10.1c-7.587,0-11.788-5.315-11.788-5.315L4.003,27.504z"/>
<path fill="#595A5C" d="M28.141,18.323c0-0.725-0.75-1.462-1.427-1.462h-2.296v-4.963h5.824c2.271,0,2.86,1.158,2.86,2.511v1.211
	h0.327c0,0,2.079-4.037,7.829-4.037c6.668,0,10.968,5.207,10.968,12.841c0,7.828-4.831,12.973-11.306,12.973
	c-4.881,0-7.055-3.166-7.055-3.166h-0.098c0,0,0.575,0.666,0.575,1.924v10.484h-6.203V18.323z M39.809,32.094
	c3.382,0,6.233-2.754,6.233-7.634c0-4.688-2.513-7.731-6.137-7.731c-3.188,0-6.185,2.319-6.185,7.779
	C33.721,28.324,35.75,32.094,39.809,32.094"/>
<path fill="#595A5C" d="M55.437,18.323c0-0.725-0.165-1.462-0.841-1.462h-1.64v-4.963h5.312c2.173,0,3.372,1.061,3.372,3.139v1.45
	c0,0.918-0.184,1.614-0.184,1.614h0.097c1.112-3.722,3.975-6.364,7.744-6.364c0.532,0,1.028,0.062,1.028,0.062v6.04
	c0,0-0.544-0.097-1.415-0.097c-2.609,0-5.616,1.499-6.729,5.17c-0.337,1.209-0.542,2.562-0.542,4.012v9.788h-6.204V18.323z"/>
<path fill="#595A5C" d="M75.288,18.324c0-0.725,0.086-1.463-0.59-1.463h-1.892v-4.963h5.804c2.272,0,2.882,1.159,2.882,3.43v15.125
	c0,0.676,0.742,1.298,1.42,1.298h2.302v4.963h-6.216c-2.271,0-3.71-0.994-3.71-3.313V18.324z M76.529,1.972h4.964v6.204h-4.964
	V1.972z"/>
<path fill="#595A5C" d="M87.695,18.323c0-0.725,0.05-1.462-0.628-1.462h-1.853v-4.963h5.573c2.175,0,3.111,1.158,3.111,2.898v0.724
	c0,0.531,0.03,1.341,0.03,1.341h0.096c1.064-2.482,3.694-5.262,8.669-5.262c5.461,0,8.575,2.714,8.575,9.237v9.615
	c0,0.676,0.441,1.298,1.118,1.298h1.362v4.963h-5.276c-2.32,0-3.408-0.994-3.408-3.313V22.093c0-2.997-0.712-5.027-3.805-5.027
	c-3.285,0-5.879,2.078-6.749,5.027c-0.339,1.013-0.613,2.125-0.613,3.285v11.334h-6.204L87.695,18.323L87.695,18.323z"/>
<path fill="#595A5C" d="M125.531,11.18c5.701,0,7.587,3.2,7.587,3.2h0.484v-0.067c0-1.111,0.385-2.415,2.317-2.415h5.127v4.963
	h-1.31c-0.629,0-1.173,0.738-1.173,1.365v16.959c0,8.457-6.518,11.646-12.942,11.646c-3.094,0-6.352-0.87-8.721-2.126l1.899-4.832
	c0,0,2.938,1.642,6.709,1.642c3.719,0,6.852-1.594,6.852-6.039v-1.158c0-0.582,0.271-1.327,0.271-1.327h-0.097
	c-1.449,2.481-3.574,3.198-6.858,3.198c-7.058,0-11.067-5.836-11.067-12.6C114.61,16.824,118.428,11.18,125.531,11.18
	 M132.73,23.784c0-5.606-2.803-7.104-6.138-7.104c-3.721,0-5.748,2.707-5.748,6.862c0,4.3,2.174,7.489,6.136,7.489
	C129.928,31.031,132.73,29.34,132.73,23.784"/>
<g>
	<path fill="#278A43" d="M229.88,39.104v1.253h-2.116v5.818h-1.486v-5.818h-2.125v-1.253H229.88z"/>
	<path fill="#278A43" d="M235.51,39.104h2.127v7.071h-1.377v-4.783c0-0.137,0.001-0.329,0.005-0.578
		c0.003-0.247,0.004-0.438,0.004-0.572l-1.339,5.934h-1.436l-1.331-5.934c0,0.135,0.002,0.325,0.005,0.572
		c0.004,0.249,0.005,0.441,0.005,0.578v4.783h-1.377v-7.071h2.149l1.287,5.56L235.51,39.104z"/>
</g>
</svg>
